<svg width="141" height="51" viewBox="0 0 141 51" fill="none" xmlns="http://www.w3.org/2000/svg">
<path d="M79.5464 16.6782H81.4023V18.6777H79.5464V22H77.0547V18.6777H70.605L70.5332 17.1602L76.9727 7.07031H79.5464V16.6782ZM73.1479 16.6782H77.0547V10.4438L76.8701 10.772L73.1479 16.6782ZM92.7842 15.7144C92.7842 17.8608 92.3809 19.481 91.5742 20.5747C90.7744 21.6616 89.5542 22.2051 87.9136 22.2051C86.3003 22.2051 85.0835 21.6753 84.2632 20.6157C83.4497 19.5493 83.0327 17.9736 83.0122 15.8887V13.3047C83.0122 11.1582 83.4121 9.54834 84.2119 8.4751C85.0186 7.40186 86.2456 6.86523 87.8931 6.86523C89.5269 6.86523 90.7437 7.38818 91.5435 8.43408C92.3501 9.47998 92.7637 11.0454 92.7842 13.1304V15.7144ZM90.2925 12.9253C90.2925 11.5239 90.1011 10.4985 89.7183 9.84912C89.3354 9.19287 88.7271 8.86475 87.8931 8.86475C87.0796 8.86475 86.4814 9.17578 86.0986 9.79785C85.7158 10.4131 85.5142 11.377 85.4937 12.6895V16.0732C85.4937 17.4678 85.6885 18.5068 86.0781 19.1904C86.4678 19.874 87.0796 20.2158 87.9136 20.2158C88.7134 20.2158 89.3047 19.9014 89.6875 19.2725C90.0703 18.6367 90.272 17.6455 90.2925 16.2988V12.9253ZM100.905 13.7866H104.802V16.063H100.905V20.5029H98.4854V16.063H94.5684V13.7866H98.4854V9.63379H100.905V13.7866Z" fill="white"/>
<path d="M72.5469 40.1719V50.25H71.0938V38.5469H72.4219L72.5469 40.1719ZM78.2422 42.7031V42.8672C78.2422 43.4818 78.1693 44.0521 78.0234 44.5781C77.8776 45.099 77.6641 45.5521 77.3828 45.9375C77.1068 46.3229 76.7656 46.6224 76.3594 46.8359C75.9531 47.0495 75.487 47.1562 74.9609 47.1562C74.4245 47.1562 73.9505 47.0677 73.5391 46.8906C73.1276 46.7135 72.7786 46.4557 72.4922 46.1172C72.2057 45.7786 71.9766 45.3724 71.8047 44.8984C71.638 44.4245 71.5234 43.8906 71.4609 43.2969V42.4219C71.5234 41.7969 71.6406 41.237 71.8125 40.7422C71.9844 40.2474 72.2109 39.8255 72.4922 39.4766C72.7786 39.1224 73.125 38.8542 73.5312 38.6719C73.9375 38.4844 74.4062 38.3906 74.9375 38.3906C75.4688 38.3906 75.9401 38.4948 76.3516 38.7031C76.763 38.9062 77.1094 39.1979 77.3906 39.5781C77.6719 39.9583 77.8828 40.4141 78.0234 40.9453C78.1693 41.4714 78.2422 42.0573 78.2422 42.7031ZM76.7891 42.8672V42.7031C76.7891 42.2812 76.7448 41.8854 76.6562 41.5156C76.5677 41.1406 76.4297 40.8125 76.2422 40.5312C76.0599 40.2448 75.8255 40.0208 75.5391 39.8594C75.2526 39.6927 74.9115 39.6094 74.5156 39.6094C74.151 39.6094 73.8333 39.6719 73.5625 39.7969C73.2969 39.9219 73.0703 40.0911 72.8828 40.3047C72.6953 40.513 72.5417 40.7526 72.4219 41.0234C72.3073 41.2891 72.2214 41.5651 72.1641 41.8516V43.875C72.2682 44.2396 72.4141 44.5833 72.6016 44.9062C72.7891 45.224 73.0391 45.4818 73.3516 45.6797C73.6641 45.8724 74.0573 45.9688 74.5312 45.9688C74.9219 45.9688 75.2578 45.888 75.5391 45.7266C75.8255 45.5599 76.0599 45.3333 76.2422 45.0469C76.4297 44.7604 76.5677 44.4323 76.6562 44.0625C76.7448 43.6875 76.7891 43.2891 76.7891 42.8672ZM81.5312 39.875V47H80.0859V38.5469H81.4922L81.5312 39.875ZM84.1719 38.5L84.1641 39.8438C84.0443 39.8177 83.9297 39.8021 83.8203 39.7969C83.7161 39.7865 83.5964 39.7812 83.4609 39.7812C83.1276 39.7812 82.8333 39.8333 82.5781 39.9375C82.3229 40.0417 82.1068 40.1875 81.9297 40.375C81.7526 40.5625 81.612 40.7865 81.5078 41.0469C81.4089 41.3021 81.3438 41.5833 81.3125 41.8906L80.9062 42.125C80.9062 41.6146 80.9557 41.1354 81.0547 40.6875C81.1589 40.2396 81.3177 39.8438 81.5312 39.5C81.7448 39.151 82.0156 38.8802 82.3438 38.6875C82.6771 38.4896 83.0729 38.3906 83.5312 38.3906C83.6354 38.3906 83.7552 38.4036 83.8906 38.4297C84.026 38.4505 84.1198 38.474 84.1719 38.5ZM84.9688 42.8672V42.6875C84.9688 42.0781 85.0573 41.513 85.2344 40.9922C85.4115 40.4661 85.6667 40.0104 86 39.625C86.3333 39.2344 86.737 38.9323 87.2109 38.7188C87.6849 38.5 88.2161 38.3906 88.8047 38.3906C89.3984 38.3906 89.9323 38.5 90.4062 38.7188C90.8854 38.9323 91.2917 39.2344 91.625 39.625C91.9635 40.0104 92.2214 40.4661 92.3984 40.9922C92.5755 41.513 92.6641 42.0781 92.6641 42.6875V42.8672C92.6641 43.4766 92.5755 44.0417 92.3984 44.5625C92.2214 45.0833 91.9635 45.5391 91.625 45.9297C91.2917 46.3151 90.888 46.6172 90.4141 46.8359C89.9453 47.0495 89.4141 47.1562 88.8203 47.1562C88.2266 47.1562 87.6927 47.0495 87.2188 46.8359C86.7448 46.6172 86.3385 46.3151 86 45.9297C85.6667 45.5391 85.4115 45.0833 85.2344 44.5625C85.0573 44.0417 84.9688 43.4766 84.9688 42.8672ZM86.4141 42.6875V42.8672C86.4141 43.2891 86.4635 43.6875 86.5625 44.0625C86.6615 44.4323 86.8099 44.7604 87.0078 45.0469C87.2109 45.3333 87.4635 45.5599 87.7656 45.7266C88.0677 45.888 88.4193 45.9688 88.8203 45.9688C89.2161 45.9688 89.5625 45.888 89.8594 45.7266C90.1615 45.5599 90.4115 45.3333 90.6094 45.0469C90.8073 44.7604 90.9557 44.4323 91.0547 44.0625C91.1589 43.6875 91.2109 43.2891 91.2109 42.8672V42.6875C91.2109 42.2708 91.1589 41.8776 91.0547 41.5078C90.9557 41.1328 90.8047 40.8021 90.6016 40.5156C90.4036 40.224 90.1536 39.9948 89.8516 39.8281C89.5547 39.6615 89.2057 39.5781 88.8047 39.5781C88.4089 39.5781 88.0599 39.6615 87.7578 39.8281C87.4609 39.9948 87.2109 40.224 87.0078 40.5156C86.8099 40.8021 86.6615 41.1328 86.5625 41.5078C86.4635 41.8776 86.4141 42.2708 86.4141 42.6875ZM94.5156 38.5469H95.9688V48.0078C95.9688 48.5234 95.8854 48.9609 95.7188 49.3203C95.5573 49.6797 95.3125 49.9505 94.9844 50.1328C94.6615 50.3203 94.2526 50.4141 93.7578 50.4141C93.6276 50.4141 93.4766 50.401 93.3047 50.375C93.1276 50.349 92.9792 50.3177 92.8594 50.2812L92.8672 49.1172C92.9661 49.138 93.0781 49.1536 93.2031 49.1641C93.3281 49.1797 93.4375 49.1875 93.5312 49.1875C93.7448 49.1875 93.9245 49.1484 94.0703 49.0703C94.2161 48.9922 94.3255 48.8672 94.3984 48.6953C94.4766 48.5234 94.5156 48.2943 94.5156 48.0078V38.5469ZM94.3672 36.3047C94.3672 36.0703 94.4401 35.8724 94.5859 35.7109C94.7318 35.5495 94.9427 35.4688 95.2188 35.4688C95.5 35.4688 95.7135 35.5495 95.8594 35.7109C96.0052 35.8724 96.0781 36.0703 96.0781 36.3047C96.0781 36.5286 96.0052 36.7214 95.8594 36.8828C95.7135 37.0391 95.5 37.1172 95.2188 37.1172C94.9427 37.1172 94.7318 37.0391 94.5859 36.8828C94.4401 36.7214 94.3672 36.5286 94.3672 36.3047ZM101.812 47.1562C101.224 47.1562 100.69 47.0573 100.211 46.8594C99.737 46.6562 99.3281 46.3724 98.9844 46.0078C98.6458 45.6432 98.3854 45.2109 98.2031 44.7109C98.0208 44.2109 97.9297 43.6641 97.9297 43.0703V42.7422C97.9297 42.0547 98.0312 41.4427 98.2344 40.9062C98.4375 40.3646 98.7135 39.9062 99.0625 39.5312C99.4115 39.1562 99.8073 38.8724 100.25 38.6797C100.693 38.487 101.151 38.3906 101.625 38.3906C102.229 38.3906 102.75 38.4948 103.188 38.7031C103.63 38.9115 103.992 39.2031 104.273 39.5781C104.555 39.9479 104.763 40.3854 104.898 40.8906C105.034 41.3906 105.102 41.9375 105.102 42.5312V43.1797H98.7891V42H103.656V41.8906C103.635 41.5156 103.557 41.151 103.422 40.7969C103.292 40.4427 103.083 40.151 102.797 39.9219C102.51 39.6927 102.12 39.5781 101.625 39.5781C101.297 39.5781 100.995 39.6484 100.719 39.7891C100.443 39.9245 100.206 40.1276 100.008 40.3984C99.8099 40.6693 99.6562 41 99.5469 41.3906C99.4375 41.7812 99.3828 42.2318 99.3828 42.7422V43.0703C99.3828 43.4714 99.4375 43.849 99.5469 44.2031C99.6615 44.5521 99.8255 44.8594 100.039 45.125C100.258 45.3906 100.521 45.599 100.828 45.75C101.141 45.901 101.495 45.9766 101.891 45.9766C102.401 45.9766 102.833 45.8724 103.188 45.6641C103.542 45.4557 103.852 45.1771 104.117 44.8281L104.992 45.5234C104.81 45.7995 104.578 46.0625 104.297 46.3125C104.016 46.5625 103.669 46.7656 103.258 46.9219C102.852 47.0781 102.37 47.1562 101.812 47.1562ZM110.172 45.9688C110.516 45.9688 110.833 45.8984 111.125 45.7578C111.417 45.6172 111.656 45.4245 111.844 45.1797C112.031 44.9297 112.138 44.6458 112.164 44.3281H113.539C113.513 44.8281 113.344 45.2943 113.031 45.7266C112.724 46.1536 112.32 46.5 111.82 46.7656C111.32 47.026 110.771 47.1562 110.172 47.1562C109.536 47.1562 108.982 47.0443 108.508 46.8203C108.039 46.5964 107.648 46.2891 107.336 45.8984C107.029 45.5078 106.797 45.0599 106.641 44.5547C106.49 44.0443 106.414 43.5052 106.414 42.9375V42.6094C106.414 42.0417 106.49 41.5052 106.641 41C106.797 40.4896 107.029 40.0391 107.336 39.6484C107.648 39.2578 108.039 38.9505 108.508 38.7266C108.982 38.5026 109.536 38.3906 110.172 38.3906C110.833 38.3906 111.411 38.526 111.906 38.7969C112.401 39.0625 112.789 39.4271 113.07 39.8906C113.357 40.349 113.513 40.8698 113.539 41.4531H112.164C112.138 41.1042 112.039 40.7891 111.867 40.5078C111.701 40.2266 111.471 40.0026 111.18 39.8359C110.893 39.6641 110.557 39.5781 110.172 39.5781C109.729 39.5781 109.357 39.6667 109.055 39.8438C108.758 40.0156 108.521 40.25 108.344 40.5469C108.172 40.8385 108.047 41.1641 107.969 41.5234C107.896 41.8776 107.859 42.2396 107.859 42.6094V42.9375C107.859 43.3073 107.896 43.6719 107.969 44.0312C108.042 44.3906 108.164 44.7161 108.336 45.0078C108.513 45.2995 108.75 45.5339 109.047 45.7109C109.349 45.8828 109.724 45.9688 110.172 45.9688ZM118.703 38.5469V39.6562H114.133V38.5469H118.703ZM115.68 36.4922H117.125V44.9062C117.125 45.1927 117.169 45.4089 117.258 45.5547C117.346 45.7005 117.461 45.7969 117.602 45.8438C117.742 45.8906 117.893 45.9141 118.055 45.9141C118.174 45.9141 118.299 45.9036 118.43 45.8828C118.565 45.8568 118.667 45.8359 118.734 45.8203L118.742 47C118.628 47.0365 118.477 47.0703 118.289 47.1016C118.107 47.138 117.885 47.1562 117.625 47.1562C117.271 47.1562 116.945 47.0859 116.648 46.9453C116.352 46.8047 116.115 46.5703 115.938 46.2422C115.766 45.9089 115.68 45.4609 115.68 44.8984V36.4922ZM125.32 44.7578C125.32 44.5495 125.273 44.3568 125.18 44.1797C125.091 43.9974 124.906 43.8333 124.625 43.6875C124.349 43.5365 123.932 43.4062 123.375 43.2969C122.906 43.1979 122.482 43.0807 122.102 42.9453C121.727 42.8099 121.406 42.6458 121.141 42.4531C120.88 42.2604 120.68 42.0339 120.539 41.7734C120.398 41.513 120.328 41.2083 120.328 40.8594C120.328 40.526 120.401 40.2109 120.547 39.9141C120.698 39.6172 120.909 39.3542 121.18 39.125C121.456 38.8958 121.786 38.7161 122.172 38.5859C122.557 38.4557 122.987 38.3906 123.461 38.3906C124.138 38.3906 124.716 38.5104 125.195 38.75C125.674 38.9896 126.042 39.3099 126.297 39.7109C126.552 40.1068 126.68 40.5469 126.68 41.0312H125.234C125.234 40.7969 125.164 40.5703 125.023 40.3516C124.888 40.1276 124.688 39.9427 124.422 39.7969C124.161 39.651 123.841 39.5781 123.461 39.5781C123.06 39.5781 122.734 39.6406 122.484 39.7656C122.24 39.8854 122.06 40.0391 121.945 40.2266C121.836 40.4141 121.781 40.612 121.781 40.8203C121.781 40.9766 121.807 41.1172 121.859 41.2422C121.917 41.362 122.016 41.474 122.156 41.5781C122.297 41.6771 122.495 41.7708 122.75 41.8594C123.005 41.9479 123.331 42.0365 123.727 42.125C124.419 42.2812 124.99 42.4688 125.438 42.6875C125.885 42.9062 126.219 43.1745 126.438 43.4922C126.656 43.8099 126.766 44.1953 126.766 44.6484C126.766 45.0182 126.688 45.3568 126.531 45.6641C126.38 45.9714 126.159 46.237 125.867 46.4609C125.581 46.6797 125.237 46.8516 124.836 46.9766C124.44 47.0964 123.995 47.1562 123.5 47.1562C122.755 47.1562 122.125 47.0234 121.609 46.7578C121.094 46.4922 120.703 46.1484 120.438 45.7266C120.172 45.3047 120.039 44.8594 120.039 44.3906H121.492C121.513 44.7865 121.628 45.1016 121.836 45.3359C122.044 45.5651 122.299 45.7292 122.602 45.8281C122.904 45.9219 123.203 45.9688 123.5 45.9688C123.896 45.9688 124.227 45.9167 124.492 45.8125C124.763 45.7083 124.969 45.5651 125.109 45.3828C125.25 45.2005 125.32 44.9922 125.32 44.7578Z" fill="white"/>
<g clip-path="url(#clip0_1_11)">
<path d="M49.1665 0H11.6666C11.2064 0 10.8333 0.373124 10.8333 0.833332V13.3333H12.5V1.66666H48.3332V47.4999C48.3412 47.9381 48.0031 48.3052 47.5657 48.3332C47.494 48.3332 47.4224 48.3274 47.3507 48.3257C47.2032 48.3216 47.0557 48.3182 46.9107 48.3032C46.8982 48.3032 46.8866 48.3032 46.8741 48.2982C44.1524 48.0007 42.0025 45.8529 41.7024 43.1316C41.7024 43.1199 41.6982 43.1074 41.6966 43.0957C41.6764 42.8977 41.6664 42.6989 41.6666 42.4999V40.8333C41.6666 40.373 41.2934 39.9999 40.8332 39.9999H12.5V24.9999H10.8333V39.9999H4.16664C3.70644 39.9999 3.33331 40.373 3.33331 40.8333V42.4999C3.3379 46.6401 6.6931 49.9953 10.8333 49.9999H47.5832C48.9355 49.9645 50.0103 48.8526 49.9999 47.4999V0.833332C49.9999 0.373124 49.6268 0 49.1665 0ZM10.8333 48.3332C7.6132 48.3296 5.00362 45.72 4.99998 42.4999V41.6666H39.9999V42.4999C40.001 42.7747 40.0169 43.0493 40.0474 43.3224C40.0549 43.3949 40.0691 43.4649 40.0791 43.5366C40.1066 43.7382 40.1399 43.9391 40.1841 44.1366C40.1991 44.2057 40.2182 44.2741 40.2357 44.3432C40.2866 44.5441 40.3441 44.7416 40.4107 44.9366C40.4299 44.9924 40.4499 45.0474 40.4707 45.1032C40.5466 45.3099 40.6324 45.5116 40.7266 45.7107C40.7466 45.7516 40.7649 45.7941 40.7849 45.8316C40.8894 46.0427 41.0041 46.2479 41.1291 46.4474C41.1457 46.4741 41.1607 46.5016 41.1774 46.5307C41.3132 46.7436 41.4599 46.9494 41.6166 47.1474L41.6432 47.1832C41.8251 47.4117 42.0199 47.6295 42.2266 47.8357C42.406 48.0135 42.5921 48.1802 42.7849 48.3357L10.8333 48.3332Z" fill="white"/>
<path d="M27.4999 23.3333C27.721 23.3333 27.9329 23.2454 28.0891 23.0892L31.4224 19.7558C31.7477 19.4304 31.7477 18.9029 31.4224 18.5775L28.0891 15.2442C27.9329 15.0879 27.721 15 27.4999 15H4.16666C1.86552 15 0 16.8655 0 19.1667C0 21.4678 1.86552 23.3333 4.16666 23.3333H27.4999ZM27.2849 16.7967L29.6549 19.1667L27.2849 21.5367L26.6924 19.1667L27.2849 16.7967ZM6.66665 16.6667H25.5999L25.1833 18.3333H8.33332V20H25.1833L25.5999 21.6667H6.66665V16.6667ZM1.66666 19.1667C1.66666 17.7859 2.78593 16.6667 4.16666 16.6667H4.99999V21.6667H4.16666C2.78593 21.6667 1.66666 20.5474 1.66666 19.1667Z" fill="white"/>
<path d="M19.1667 35.8333H44.1666C44.6268 35.8333 44.9999 35.4601 44.9999 34.9999V9.99999C44.9998 9.53979 44.6267 9.16677 44.1664 9.16687C43.9455 9.16687 43.7337 9.25468 43.5774 9.41083L18.5775 34.4108C18.2521 34.7363 18.2522 35.2639 18.5777 35.5893C18.734 35.7455 18.9457 35.8333 19.1667 35.8333ZM43.3333 12.0117V14.1667H41.6666V15.8333H43.3333V17.5H41.6666V19.1666H43.3333V20.8333H41.6666V22.5H43.3333V24.1666H41.6666V25.8333H43.3333V27.5H41.6666V29.1666H43.3333V30.8333H41.6666V32.4999H43.3333V34.1666H41.6666V32.4999H40V34.1666H38.3333V32.4999H36.6666V34.1666H35V32.4999H33.3333V34.1666H31.6666V32.4999H30V34.1666H28.3333V32.4999H26.6666V34.1666H25V32.4999H23.3333V34.1666H21.1783L43.3333 12.0117Z" fill="white"/>
<path d="M31.2375 30.8333H39.1666C39.6268 30.8333 40 30.4602 40 29.9999V22.0708C39.9999 21.6106 39.6267 21.2376 39.1664 21.2377C38.9455 21.2377 38.7337 21.3255 38.5775 21.4816L30.6483 29.4108C30.3229 29.7363 30.323 30.2639 30.6485 30.5893C30.8048 30.7455 31.0165 30.8333 31.2375 30.8333ZM38.3333 24.0833V29.1666H33.25L38.3333 24.0833Z" fill="white"/>
<path d="M38.3333 5H21.6666V6.66666H38.3333V5Z" fill="white"/>
<path d="M40.8332 8.33337H19.1666V10H40.8332V8.33337Z" fill="white"/>
<path d="M19.1666 25.8333H14.1666V27.4999H19.1666V25.8333Z" fill="white"/>
<path d="M17.5 29.1666H14.1666V30.8333H17.5V29.1666Z" fill="white"/>
</g>
<defs>
<clipPath id="clip0_1_11">
<rect width="50" height="50" fill="white"/>
</clipPath>
</defs>
</svg>
